<svg width="60px" height="60px" viewBox="0 0 260 260" version="1.1" xmlns="http://www.w3.org/2000/svg"
     xmlns:xlink="http://www.w3.org/1999/xlink" cleaned="true">
  <g id="home-white_svg__icon/favicon_2" stroke="none" stroke-width="1" fill="none" fill-rule="evenodd">
    <g id="home-white_svg__Group" transform="translate(5.000000, 5.000000)">
      <circle id="home-white_svg__Base" fill="#0090FF" cx="125" cy="125" r="125"></circle>
      <path
        d="M53.5033707,192.950038 C53.5033707,197.012532 56.7930701,200.315789 60.8591653,200.315789 L108.120834,200.315789 C112.186929,200.315789 115.476628,197.012532 115.476628,192.950038 L115.476628,159.638831 L134.523373,159.638831 L134.523373,192.950038 C134.523373,197.012532 137.813073,200.315789 141.879168,200.315789 L189.140836,200.315789 C193.206932,200.315789 196.496631,197.012532 196.496631,192.950038 L196.496631,132.520858 L202.64417,132.520858 C205.721723,132.520858 208.47199,130.609628 209.542685,127.723035 C210.601403,124.843904 209.785264,121.607707 207.473635,119.595059 L182.993297,98.2245379 L182.993297,77.6986545 C182.993297,73.6361607 179.703598,70.3329032 175.637503,70.3329032 L155.382502,70.3329032 C154.168745,70.3329032 153.01359,70.6295461 151.992893,71.160969 L129.833864,51.8107412 C127.060114,49.3959234 122.925137,49.3959234 120.162731,51.8137198 L42.5221293,119.605533 C40.2195841,121.623033 39.4018581,124.844897 40.4511714,127.713134 C41.5326748,130.614202 44.2824148,132.520858 47.3558315,132.520858 L53.5033707,132.520858 L53.5033707,192.950038 Z"
        id="home-white_svg__Shape" fill="#FFFFFF" fill-rule="nonzero"></path>
    </g>
  </g>
</svg>
